<svg xmlns="http://www.w3.org/2000/svg" xmlns:xlink="http://www.w3.org/1999/xlink" width="500" zoomAndPan="magnify" viewBox="0 0 375 374.999991" height="500" preserveAspectRatio="xMidYMid meet" version="1.0"><defs><clipPath id="f3734cb8b3"><path d="M 114.460938 94.601562 L 260.710938 94.601562 L 260.710938 280.601562 L 114.460938 280.601562 Z M 114.460938 94.601562 " clip-rule="nonzero"/></clipPath></defs><g clip-path="url(#f3734cb8b3)"><path fill="#ff1616" d="M 258.769531 116.410156 L 259.152344 117.9375 C 259.601562 117.824219 259.976562 117.523438 260.179688 117.109375 C 260.386719 116.695312 260.398438 116.21875 260.21875 115.792969 L 260.214844 115.777344 L 258.765625 116.394531 L 260.269531 115.9375 L 260.265625 115.921875 C 260.089844 115.339844 259.589844 114.910156 258.988281 114.820312 C 258.386719 114.730469 257.785156 114.996094 257.449219 115.503906 L 258.757812 116.378906 L 260.230469 115.816406 C 259.828125 114.78125 259.117188 113.910156 258.234375 113.140625 C 256.902344 111.992188 255.148438 111.0625 253.128906 110.386719 C 251.105469 109.71875 248.820312 109.316406 246.445312 109.3125 C 244.265625 109.3125 242.011719 109.65625 239.839844 110.457031 C 239.007812 110.769531 237.828125 111.246094 236.503906 111.796875 C 232.53125 113.449219 227.3125 115.746094 227.304688 115.75 L 227.941406 117.191406 L 227.328125 115.738281 L 223.171875 117.488281 L 215.238281 112.855469 L 214.441406 114.214844 L 214.988281 115.691406 L 216.335938 115.191406 C 217.097656 114.910156 217.722656 114.402344 218.144531 113.78125 C 218.570312 113.15625 218.804688 112.414062 218.804688 111.644531 C 218.804688 111.207031 218.726562 110.761719 218.574219 110.335938 L 218.570312 110.332031 C 218.289062 109.574219 217.78125 108.949219 217.160156 108.523438 C 216.535156 108.101562 215.792969 107.863281 215.023438 107.863281 C 214.585938 107.863281 214.136719 107.941406 213.707031 108.101562 L 213.710938 108.101562 L 209.660156 109.597656 L 206.457031 107.726562 L 205.664062 109.085938 L 206.210938 110.5625 L 208.355469 109.765625 C 209.113281 109.488281 209.738281 108.976562 210.164062 108.355469 C 210.585938 107.734375 210.824219 106.992188 210.824219 106.21875 C 210.824219 105.78125 210.746094 105.335938 210.585938 104.90625 L 210.589844 104.910156 C 210.308594 104.148438 209.800781 103.523438 209.175781 103.101562 C 208.554688 102.671875 207.8125 102.4375 207.039062 102.4375 C 206.601562 102.4375 206.15625 102.515625 205.726562 102.675781 L 205.726562 102.671875 L 200.878906 104.46875 L 184.492188 94.898438 C 184.082031 94.660156 183.59375 94.617188 183.148438 94.78125 L 177.597656 96.84375 L 178.144531 98.320312 L 179.183594 97.132812 L 179.175781 97.128906 C 178.742188 96.75 178.132812 96.636719 177.589844 96.835938 L 176.449219 97.261719 C 175.929688 97.457031 175.554688 97.902344 175.453125 98.445312 C 175.347656 98.984375 175.535156 99.539062 175.945312 99.910156 L 175.949219 99.914062 L 177.003906 98.742188 L 176.453125 97.269531 L 175.292969 97.699219 C 174.789062 97.886719 174.414062 98.320312 174.300781 98.847656 C 174.1875 99.371094 174.355469 99.921875 174.734375 100.296875 L 180.988281 106.449219 L 182.09375 105.324219 L 181.28125 103.976562 C 180.449219 104.476562 179.769531 104.921875 179.210938 105.390625 C 178.929688 105.628906 178.679688 105.875 178.445312 106.199219 C 178.335938 106.363281 178.226562 106.546875 178.140625 106.769531 C 178.054688 106.992188 177.992188 107.257812 177.992188 107.550781 C 177.992188 107.664062 178 107.8125 178.035156 107.976562 L 179.578125 107.640625 L 178.023438 107.90625 L 178.035156 107.976562 C 178.066406 108.148438 178.117188 108.304688 178.203125 108.460938 L 178.222656 108.496094 L 179.605469 107.746094 L 178.175781 108.398438 C 178.316406 108.71875 178.550781 108.996094 178.796875 109.1875 C 179.167969 109.476562 179.539062 109.601562 179.867188 109.675781 C 180.199219 109.746094 180.507812 109.765625 180.816406 109.765625 C 181.359375 109.761719 181.910156 109.699219 182.488281 109.613281 C 183.066406 109.519531 183.671875 109.402344 184.277344 109.28125 L 184.273438 109.28125 L 184.445312 109.246094 L 184.4375 109.246094 C 184.964844 109.136719 185.386719 108.832031 185.65625 108.359375 C 185.71875 108.242188 185.769531 108.117188 185.800781 107.992188 L 185.828125 107.890625 L 184.304688 107.496094 L 183.199219 108.621094 L 190.003906 115.3125 L 191.105469 114.1875 L 190.289062 112.84375 C 189.496094 113.328125 188.847656 113.753906 188.3125 114.214844 C 188.042969 114.449219 187.796875 114.691406 187.578125 115.007812 C 187.46875 115.167969 187.363281 115.351562 187.28125 115.570312 C 187.199219 115.789062 187.140625 116.046875 187.140625 116.332031 C 187.140625 116.449219 187.148438 116.601562 187.1875 116.769531 L 188.726562 116.425781 L 187.175781 116.710938 L 187.1875 116.78125 C 187.214844 116.925781 187.257812 117.050781 187.324219 117.183594 L 187.339844 117.21875 L 188.757812 116.53125 L 187.324219 117.183594 C 187.46875 117.503906 187.699219 117.78125 187.945312 117.972656 C 188.316406 118.261719 188.6875 118.382812 189.015625 118.457031 C 189.347656 118.527344 189.65625 118.546875 189.964844 118.546875 C 190.507812 118.546875 191.058594 118.480469 191.636719 118.394531 C 192.21875 118.304688 192.820312 118.183594 193.425781 118.058594 L 193.417969 118.0625 L 193.585938 118.027344 C 193.746094 118 193.90625 117.9375 194.046875 117.859375 L 194.148438 117.804688 L 193.382812 116.429688 L 192.277344 117.550781 L 198.457031 123.628906 L 199.5625 122.503906 L 198.734375 121.164062 C 197.992188 121.625 197.386719 122.03125 196.878906 122.476562 C 196.625 122.707031 196.394531 122.941406 196.179688 123.257812 C 196.078125 123.414062 195.980469 123.59375 195.902344 123.804688 C 195.828125 124.019531 195.773438 124.269531 195.773438 124.539062 C 195.773438 124.65625 195.78125 124.808594 195.820312 124.980469 L 197.355469 124.632812 L 195.808594 124.933594 L 195.824219 125 C 195.847656 125.128906 195.886719 125.25 195.945312 125.371094 L 195.960938 125.410156 L 197.386719 124.738281 L 195.953125 125.390625 C 196.097656 125.710938 196.328125 125.988281 196.574219 126.179688 C 196.945312 126.46875 197.316406 126.59375 197.644531 126.667969 C 197.976562 126.734375 198.285156 126.757812 198.597656 126.757812 C 199.136719 126.757812 199.691406 126.691406 200.269531 126.601562 C 200.847656 126.511719 201.449219 126.394531 202.058594 126.269531 L 202.0625 126.269531 L 202.128906 126.257812 L 201.808594 124.714844 L 200.703125 125.835938 L 203.226562 128.320312 L 204.332031 127.199219 L 203.671875 125.769531 C 201.167969 126.925781 195.074219 129.757812 188.742188 132.742188 C 182.40625 135.726562 175.851562 138.863281 172.375 140.667969 L 172.371094 140.667969 C 171.992188 140.867188 171.398438 141.199219 170.632812 141.640625 L 171.425781 143.003906 L 172.003906 141.539062 L 155.972656 135.1875 C 155.609375 135.046875 155.210938 135.042969 154.84375 135.175781 L 150.023438 136.964844 L 148.96875 137.355469 L 147.960938 137.726562 C 147.429688 137.921875 147.039062 138.394531 146.953125 138.957031 C 146.863281 139.515625 147.085938 140.085938 147.527344 140.4375 L 160.121094 150.417969 L 161.097656 149.183594 L 160.582031 147.695312 C 149.742188 151.445312 138.269531 157.523438 129.460938 167.445312 C 125.0625 172.40625 121.34375 178.324219 118.734375 185.355469 C 116.121094 192.386719 114.617188 200.519531 114.617188 209.902344 C 114.617188 221.109375 117.046875 231.171875 121.355469 239.929688 C 127.816406 253.074219 138.480469 263.261719 151.378906 270.140625 C 164.277344 277.027344 179.417969 280.625 194.941406 280.625 C 195.355469 280.625 195.761719 280.457031 196.054688 280.164062 C 196.351562 279.871094 196.515625 279.464844 196.515625 279.050781 L 196.515625 243.722656 C 196.515625 243.308594 196.351562 242.902344 196.054688 242.609375 C 195.761719 242.316406 195.355469 242.148438 194.941406 242.148438 C 181.492188 242.148438 169.332031 236.703125 160.515625 227.890625 C 151.707031 219.074219 146.261719 206.917969 146.257812 193.46875 C 146.257812 178.402344 153.097656 164.953125 163.84375 156.015625 L 162.839844 154.804688 L 162.953125 156.375 C 163.078125 156.367188 163.207031 156.355469 163.34375 156.347656 L 163.21875 154.777344 L 161.671875 154.492188 L 158.71875 170.652344 C 158.613281 171.210938 158.816406 171.773438 159.253906 172.140625 C 159.6875 172.503906 160.28125 172.609375 160.8125 172.410156 L 161.820312 172.039062 L 162.863281 171.652344 C 163.480469 171.421875 163.890625 170.835938 163.890625 170.175781 L 162.316406 170.175781 L 162.863281 171.648438 L 167.699219 169.859375 C 168.0625 169.726562 168.363281 169.460938 168.542969 169.117188 L 176.566406 153.851562 L 175.171875 153.117188 L 175.460938 154.667969 C 176.328125 154.503906 176.996094 154.371094 177.414062 154.273438 C 181.230469 153.375 188.246094 151.484375 194.996094 149.621094 C 201.742188 147.761719 208.210938 145.933594 210.867188 145.179688 L 210.4375 143.664062 L 208.867188 143.535156 L 208.570312 147.0625 L 210.140625 147.195312 L 209.363281 145.824219 L 209.304688 145.855469 L 209.3125 145.851562 C 208.417969 146.351562 207.550781 146.847656 206.816406 147.382812 C 206.453125 147.65625 206.113281 147.9375 205.808594 148.300781 C 205.65625 148.484375 205.511719 148.691406 205.390625 148.953125 C 205.269531 149.214844 205.175781 149.539062 205.171875 149.910156 C 205.171875 150.089844 205.199219 150.304688 205.261719 150.515625 L 206.769531 150.054688 L 205.242188 150.441406 L 205.25 150.480469 C 205.289062 150.636719 205.351562 150.78125 205.433594 150.917969 L 205.472656 150.976562 L 206.816406 150.15625 L 205.441406 150.925781 C 205.605469 151.214844 205.835938 151.453125 206.066406 151.613281 C 206.421875 151.859375 206.757812 151.957031 207.066406 152.023438 C 207.375 152.082031 207.667969 152.101562 207.96875 152.101562 C 208.613281 152.097656 209.308594 152.015625 210.121094 151.886719 L 209.875 150.332031 L 208.308594 150.199219 L 207.578125 158.835938 L 209.148438 158.96875 L 208.828125 157.429688 L 208.714844 157.449219 C 208.554688 157.484375 208.410156 157.539062 208.269531 157.617188 L 208.117188 157.699219 C 207.222656 158.203125 206.351562 158.699219 205.621094 159.234375 C 205.257812 159.507812 204.917969 159.785156 204.613281 160.152344 C 204.460938 160.332031 204.316406 160.542969 204.191406 160.804688 C 204.074219 161.0625 203.976562 161.390625 203.976562 161.757812 C 203.976562 161.941406 204 162.15625 204.070312 162.371094 L 205.570312 161.90625 L 204.042969 162.28125 L 204.054688 162.324219 C 204.089844 162.46875 204.152344 162.621094 204.226562 162.75 L 204.261719 162.808594 L 205.617188 162.007812 L 204.246094 162.785156 C 204.410156 163.070312 204.640625 163.304688 204.871094 163.464844 C 205.226562 163.707031 205.5625 163.808594 205.867188 163.871094 C 206.175781 163.933594 206.46875 163.949219 206.769531 163.953125 C 207.46875 163.949219 208.234375 163.847656 209.136719 163.703125 L 208.882812 162.148438 L 207.308594 162.015625 L 206.511719 171.527344 L 208.078125 171.660156 L 208.980469 170.371094 L 208.898438 170.3125 C 208.792969 170.238281 208.675781 170.175781 208.554688 170.132812 C 208.347656 170.054688 208.136719 170.015625 207.921875 170.015625 C 207.628906 170.015625 207.335938 170.085938 207.0625 170.234375 L 207.050781 170.238281 L 206.902344 170.324219 L 206.898438 170.324219 C 206.003906 170.824219 205.136719 171.320312 204.402344 171.855469 C 204.039062 172.128906 203.703125 172.410156 203.394531 172.773438 C 203.246094 172.957031 203.097656 173.167969 202.976562 173.429688 C 202.855469 173.6875 202.757812 174.015625 202.757812 174.382812 C 202.757812 174.566406 202.785156 174.777344 202.847656 174.988281 L 204.355469 174.53125 L 202.839844 174.953125 L 202.847656 174.992188 C 202.882812 175.121094 202.933594 175.238281 203 175.355469 L 203.035156 175.414062 L 203.03125 175.40625 C 203.191406 175.695312 203.421875 175.929688 203.65625 176.089844 C 204.007812 176.332031 204.34375 176.433594 204.652344 176.5 C 204.960938 176.558594 205.253906 176.578125 205.554688 176.578125 C 206.296875 176.574219 207.109375 176.464844 208.082031 176.300781 L 207.820312 174.746094 L 206.25 174.617188 L 205.515625 183.355469 C 205.472656 183.890625 205.703125 184.417969 206.132812 184.742188 C 206.558594 185.066406 207.128906 185.148438 207.628906 184.964844 L 209.617188 184.230469 L 209.933594 184.113281 C 210.554688 183.882812 210.960938 183.296875 210.960938 182.636719 L 210.960938 182.632812 L 209.386719 182.632812 L 209.933594 184.113281 L 215.492188 182.054688 C 215.9375 181.890625 216.28125 181.539062 216.433594 181.09375 L 222.628906 163.15625 L 227.476562 161.359375 C 228.234375 161.078125 228.855469 160.570312 229.28125 159.945312 C 229.707031 159.324219 229.941406 158.582031 229.941406 157.808594 C 229.941406 157.375 229.867188 156.929688 229.707031 156.5 L 229.707031 156.496094 C 229.425781 155.738281 228.917969 155.117188 228.292969 154.691406 C 227.671875 154.265625 226.929688 154.03125 226.160156 154.03125 C 225.722656 154.03125 225.273438 154.105469 224.84375 154.265625 L 224.847656 154.265625 L 222.699219 155.0625 L 223.246094 156.539062 L 224.734375 157.050781 L 225.945312 153.542969 L 229.996094 152.042969 C 230.753906 151.761719 231.375 151.253906 231.800781 150.628906 C 232.226562 150.007812 232.460938 149.265625 232.460938 148.492188 C 232.460938 148.058594 232.386719 147.613281 232.226562 147.183594 L 232.226562 147.179688 C 231.945312 146.421875 231.4375 145.796875 230.816406 145.375 C 230.191406 144.949219 229.449219 144.714844 228.679688 144.714844 C 228.242188 144.714844 227.792969 144.789062 227.363281 144.949219 L 227.367188 144.949219 L 226.015625 145.449219 L 226.5625 146.925781 L 228.054688 147.4375 L 231.050781 138.75 L 235.34375 137.375 L 234.863281 135.875 L 235.324219 137.378906 C 235.324219 137.378906 237.753906 136.640625 240.578125 135.753906 C 241.996094 135.3125 243.507812 134.832031 244.875 134.386719 C 246.238281 133.941406 247.445312 133.535156 248.277344 133.226562 C 252.03125 131.832031 255.0625 129.242188 257.183594 126.429688 C 258.246094 125.019531 259.082031 123.550781 259.664062 122.109375 C 260.242188 120.667969 260.578125 119.261719 260.582031 117.925781 C 260.582031 117.222656 260.484375 116.53125 260.253906 115.878906 L 258.769531 116.410156 L 259.152344 117.9375 L 258.769531 116.410156 L 257.289062 116.941406 C 257.371094 117.179688 257.433594 117.511719 257.429688 117.925781 C 257.433594 118.710938 257.210938 119.777344 256.746094 120.933594 C 256.046875 122.667969 254.808594 124.601562 253.167969 126.285156 C 251.523438 127.976562 249.480469 129.421875 247.183594 130.273438 C 246.433594 130.550781 245.238281 130.957031 243.898438 131.390625 C 241.878906 132.050781 239.5 132.796875 237.632812 133.375 C 236.699219 133.664062 235.894531 133.914062 235.320312 134.089844 C 234.746094 134.265625 234.40625 134.367188 234.40625 134.367188 L 234.382812 134.375 L 229.339844 135.996094 C 228.867188 136.144531 228.492188 136.511719 228.332031 136.976562 L 225.074219 146.410156 C 224.878906 146.984375 225.03125 147.625 225.464844 148.050781 C 225.898438 148.476562 226.542969 148.613281 227.113281 148.402344 L 228.457031 147.902344 L 228.460938 147.902344 C 228.535156 147.875 228.605469 147.863281 228.679688 147.863281 C 228.804688 147.863281 228.933594 147.902344 229.039062 147.976562 C 229.144531 148.050781 229.222656 148.144531 229.273438 148.277344 L 229.273438 148.273438 C 229.300781 148.347656 229.3125 148.421875 229.3125 148.492188 C 229.3125 148.621094 229.273438 148.75 229.199219 148.855469 C 229.125 148.960938 229.03125 149.042969 228.898438 149.089844 L 224.152344 150.847656 C 223.710938 151.011719 223.367188 151.363281 223.210938 151.8125 L 221.757812 156.027344 C 221.558594 156.601562 221.710938 157.238281 222.144531 157.664062 C 222.582031 158.089844 223.222656 158.226562 223.792969 158.015625 L 225.941406 157.21875 L 225.945312 157.21875 C 226.015625 157.191406 226.085938 157.179688 226.160156 157.179688 C 226.285156 157.179688 226.414062 157.21875 226.519531 157.292969 C 226.625 157.363281 226.703125 157.460938 226.753906 157.59375 L 226.753906 157.589844 C 226.78125 157.667969 226.792969 157.738281 226.792969 157.808594 C 226.792969 157.933594 226.753906 158.066406 226.679688 158.171875 C 226.605469 158.277344 226.511719 158.355469 226.378906 158.40625 L 220.835938 160.460938 C 220.390625 160.625 220.046875 160.976562 219.894531 161.421875 L 213.699219 179.363281 L 208.84375 181.160156 C 208.222656 181.386719 207.8125 181.972656 207.8125 182.632812 L 207.8125 182.636719 L 209.386719 182.636719 L 208.84375 181.160156 L 208.523438 181.277344 L 206.539062 182.011719 L 207.085938 183.488281 L 208.652344 183.621094 L 209.390625 174.882812 C 209.429688 174.394531 209.246094 173.917969 208.886719 173.589844 C 208.523438 173.257812 208.039062 173.113281 207.554688 173.195312 C 206.660156 173.351562 205.953125 173.429688 205.554688 173.425781 C 205.449219 173.425781 205.367188 173.421875 205.316406 173.417969 L 205.261719 173.410156 L 205.121094 173.964844 L 205.425781 173.484375 C 205.320312 173.421875 205.261719 173.410156 205.261719 173.410156 L 205.121094 173.964844 L 205.425781 173.484375 L 204.867188 174.367188 L 205.769531 173.855469 C 205.671875 173.679688 205.523438 173.546875 205.425781 173.484375 L 204.867188 174.367188 L 205.769531 173.855469 L 205.765625 173.851562 L 205.730469 173.789062 L 204.367188 174.570312 L 205.882812 174.148438 L 205.871094 174.109375 L 205.859375 174.074219 L 204.84375 174.382812 L 205.90625 174.382812 C 205.90625 174.300781 205.894531 174.1875 205.859375 174.074219 L 204.84375 174.382812 L 205.90625 174.382812 L 205.039062 174.382812 L 205.835938 174.75 C 205.859375 174.691406 205.90625 174.5625 205.90625 174.382812 L 205.039062 174.382812 L 205.835938 174.75 L 205.453125 174.574219 L 205.808594 174.800781 L 205.835938 174.75 L 205.453125 174.574219 L 205.808594 174.800781 L 205.730469 174.75 L 205.804688 174.804688 L 205.808594 174.800781 L 205.730469 174.75 L 205.804688 174.804688 C 205.808594 174.796875 205.886719 174.703125 206.027344 174.582031 C 206.246094 174.402344 206.589844 174.160156 207.007812 173.902344 C 207.425781 173.640625 207.914062 173.363281 208.433594 173.074219 L 208.429688 173.078125 L 208.578125 172.992188 L 208.570312 173 L 207.921875 171.8125 L 207.921875 173.164062 C 208.144531 173.164062 208.359375 173.113281 208.570312 173 L 207.921875 171.8125 L 207.921875 173.164062 L 207.921875 171.800781 L 207.441406 173.078125 C 207.597656 173.136719 207.761719 173.164062 207.921875 173.164062 L 207.921875 171.800781 L 207.441406 173.078125 L 207.996094 171.601562 L 207.09375 172.890625 L 207.175781 172.949219 C 207.636719 173.273438 208.238281 173.324219 208.746094 173.085938 C 209.257812 172.847656 209.601562 172.351562 209.648438 171.792969 L 210.449219 162.28125 C 210.492188 161.800781 210.304688 161.320312 209.949219 160.992188 C 209.59375 160.664062 209.101562 160.515625 208.621094 160.597656 C 207.800781 160.734375 207.144531 160.804688 206.769531 160.804688 C 206.664062 160.804688 206.582031 160.796875 206.53125 160.789062 L 206.476562 160.78125 L 206.335938 161.339844 L 206.640625 160.859375 C 206.535156 160.792969 206.476562 160.785156 206.476562 160.78125 L 206.335938 161.339844 L 206.640625 160.859375 L 206.082031 161.746094 L 206.988281 161.230469 C 206.886719 161.054688 206.742188 160.921875 206.640625 160.859375 L 206.082031 161.746094 L 206.988281 161.230469 L 206.972656 161.207031 L 206.9375 161.148438 L 205.582031 161.945312 L 207.113281 161.570312 L 207.078125 161.441406 L 206.050781 161.757812 L 207.125 161.757812 C 207.125 161.675781 207.113281 161.558594 207.078125 161.441406 L 206.050781 161.757812 L 207.125 161.757812 L 206.253906 161.757812 L 207.050781 162.128906 C 207.078125 162.066406 207.125 161.9375 207.125 161.757812 L 206.253906 161.757812 L 207.050781 162.128906 L 206.667969 161.949219 L 207.027344 162.175781 L 207.050781 162.128906 L 206.667969 161.949219 L 207.027344 162.175781 L 206.949219 162.128906 L 207.019531 162.179688 L 207.027344 162.175781 L 206.949219 162.128906 L 207.019531 162.179688 C 207.023438 162.175781 207.101562 162.082031 207.246094 161.960938 C 207.460938 161.777344 207.808594 161.535156 208.226562 161.277344 C 208.644531 161.019531 209.132812 160.738281 209.648438 160.453125 L 209.800781 160.371094 L 209.035156 158.992188 L 209.351562 160.535156 L 209.46875 160.511719 C 210.152344 160.371094 210.660156 159.796875 210.714844 159.101562 L 211.445312 150.464844 C 211.484375 149.980469 211.300781 149.507812 210.949219 149.179688 C 210.59375 148.847656 210.105469 148.699219 209.628906 148.777344 C 208.898438 148.894531 208.3125 148.953125 207.96875 148.953125 C 207.863281 148.953125 207.777344 148.945312 207.730469 148.941406 L 207.671875 148.933594 L 207.53125 149.492188 L 207.835938 149.011719 C 207.734375 148.945312 207.675781 148.933594 207.671875 148.933594 L 207.53125 149.492188 L 207.835938 149.011719 L 207.277344 149.898438 L 208.191406 149.386719 C 208.089844 149.207031 207.941406 149.070312 207.835938 149.011719 L 207.277344 149.898438 L 208.191406 149.386719 L 208.160156 149.335938 L 208.121094 149.277344 L 206.78125 150.097656 L 208.308594 149.710938 L 208.296875 149.671875 L 208.273438 149.597656 L 207.253906 149.910156 L 208.320312 149.910156 C 208.324219 149.824219 208.3125 149.710938 208.273438 149.597656 L 207.253906 149.910156 L 208.320312 149.910156 L 207.453125 149.910156 L 208.246094 150.277344 C 208.277344 150.21875 208.320312 150.085938 208.324219 149.910156 L 207.453125 149.910156 L 208.246094 150.277344 L 207.867188 150.097656 L 208.21875 150.324219 L 208.246094 150.277344 L 207.867188 150.097656 L 208.21875 150.324219 L 208.148438 150.277344 L 208.21875 150.328125 L 208.21875 150.324219 L 208.148438 150.277344 L 208.21875 150.328125 C 208.21875 150.324219 208.300781 150.226562 208.445312 150.109375 C 208.65625 149.925781 209.007812 149.683594 209.421875 149.425781 C 209.839844 149.167969 210.332031 148.890625 210.847656 148.601562 L 210.855469 148.597656 L 210.914062 148.5625 C 211.367188 148.308594 211.664062 147.84375 211.707031 147.324219 L 212.003906 143.800781 C 212.046875 143.285156 211.835938 142.78125 211.4375 142.453125 C 211.039062 142.125 210.503906 142.011719 210.007812 142.152344 C 207.359375 142.902344 200.894531 144.726562 194.160156 146.585938 C 187.429688 148.441406 180.40625 150.335938 176.695312 151.207031 C 176.375 151.28125 175.71875 151.414062 174.886719 151.570312 C 174.410156 151.660156 174.003906 151.957031 173.78125 152.386719 L 166.039062 167.117188 L 161.769531 168.699219 C 161.148438 168.925781 160.742188 169.515625 160.742188 170.175781 L 162.316406 170.175781 L 161.769531 168.699219 L 160.726562 169.085938 L 159.71875 169.457031 L 160.265625 170.933594 L 161.816406 171.21875 L 164.769531 155.058594 C 164.859375 154.578125 164.714844 154.085938 164.390625 153.722656 C 164.0625 153.359375 163.585938 153.167969 163.097656 153.207031 C 162.976562 153.214844 162.851562 153.226562 162.726562 153.234375 C 162.394531 153.257812 162.085938 153.382812 161.832031 153.59375 C 150.398438 163.09375 143.109375 177.4375 143.109375 193.46875 C 143.109375 207.773438 148.914062 220.742188 158.289062 230.117188 C 167.664062 239.492188 180.632812 245.296875 194.941406 245.296875 L 194.941406 243.722656 L 193.367188 243.722656 L 193.367188 279.050781 L 194.941406 279.050781 L 194.941406 277.476562 C 174.890625 277.480469 155.542969 271.257812 141.277344 259.722656 C 134.144531 253.957031 128.273438 246.863281 124.179688 238.542969 C 120.089844 230.214844 117.769531 220.652344 117.765625 209.902344 C 117.769531 200.855469 119.210938 193.109375 121.683594 186.453125 C 125.394531 176.472656 131.421875 168.917969 138.503906 163.140625 C 145.585938 157.367188 153.738281 153.394531 161.613281 150.671875 C 162.152344 150.484375 162.554688 150.011719 162.652344 149.449219 C 162.746094 148.882812 162.523438 148.304688 162.078125 147.949219 L 149.484375 137.972656 L 148.507812 139.203125 L 149.050781 140.679688 L 150.0625 140.308594 L 151.113281 139.917969 L 155.375 138.339844 L 170.84375 144.46875 C 171.292969 144.644531 171.796875 144.605469 172.214844 144.363281 C 172.953125 143.9375 173.53125 143.613281 173.828125 143.460938 L 173.824219 143.464844 C 177.207031 141.707031 183.765625 138.566406 190.085938 135.589844 C 196.402344 132.609375 202.496094 129.78125 204.996094 128.625 C 205.464844 128.410156 205.796875 127.972656 205.886719 127.464844 C 205.972656 126.957031 205.804688 126.433594 205.4375 126.074219 L 202.914062 123.589844 C 202.539062 123.222656 202.003906 123.066406 201.488281 123.171875 L 201.421875 123.1875 L 201.429688 123.183594 C 200.839844 123.304688 200.277344 123.414062 199.789062 123.492188 C 199.296875 123.570312 198.875 123.609375 198.597656 123.609375 C 198.492188 123.609375 198.410156 123.601562 198.359375 123.59375 L 198.320312 123.589844 L 198.308594 123.585938 L 198.167969 124.132812 L 198.484375 123.675781 C 198.375 123.601562 198.3125 123.589844 198.308594 123.585938 L 198.167969 124.132812 L 198.484375 123.675781 L 197.90625 124.503906 L 198.824219 124.089844 C 198.742188 123.90625 198.589844 123.75 198.484375 123.675781 L 197.90625 124.503906 L 198.824219 124.089844 L 198.8125 124.070312 L 198.796875 124.03125 L 197.367188 124.703125 L 198.914062 124.402344 L 198.902344 124.332031 L 198.890625 124.285156 L 197.765625 124.539062 L 198.921875 124.539062 C 198.921875 124.484375 198.917969 124.394531 198.890625 124.285156 L 197.765625 124.539062 L 198.921875 124.539062 L 197.9375 124.539062 L 198.867188 124.875 C 198.890625 124.796875 198.921875 124.683594 198.921875 124.539062 L 197.9375 124.539062 L 198.867188 124.875 L 198.296875 124.667969 L 198.808594 124.992188 C 198.820312 124.976562 198.84375 124.941406 198.867188 124.875 L 198.296875 124.667969 L 198.808594 124.992188 L 198.691406 124.917969 L 198.804688 125 L 198.808594 124.992188 L 198.691406 124.917969 L 198.804688 125 C 198.808594 124.988281 198.964844 124.816406 199.242188 124.613281 C 199.515625 124.402344 199.90625 124.140625 200.386719 123.84375 C 200.796875 123.589844 201.070312 123.164062 201.125 122.683594 C 201.179688 122.203125 201.011719 121.722656 200.664062 121.382812 L 194.488281 115.304688 C 193.988281 114.816406 193.226562 114.710938 192.617188 115.050781 L 192.511719 115.109375 L 193.28125 116.484375 L 192.972656 114.941406 L 192.804688 114.972656 L 192.792969 114.976562 C 192.207031 115.097656 191.644531 115.207031 191.15625 115.28125 C 190.667969 115.359375 190.242188 115.402344 189.964844 115.398438 C 189.859375 115.398438 189.777344 115.394531 189.730469 115.386719 L 189.6875 115.378906 L 189.679688 115.378906 L 189.535156 115.921875 L 189.851562 115.464844 C 189.742188 115.394531 189.679688 115.378906 189.679688 115.378906 L 189.535156 115.921875 L 189.851562 115.464844 L 189.277344 116.292969 L 190.1875 115.878906 C 190.109375 115.695312 189.960938 115.539062 189.851562 115.464844 L 189.277344 116.292969 L 190.1875 115.878906 L 190.171875 115.839844 L 190.152344 115.804688 L 188.738281 116.492188 L 190.285156 116.207031 L 190.273438 116.136719 L 190.261719 116.078125 L 189.136719 116.332031 L 190.292969 116.332031 C 190.292969 116.277344 190.285156 116.1875 190.261719 116.078125 L 189.136719 116.332031 L 190.292969 116.332031 L 189.3125 116.332031 L 190.230469 116.675781 C 190.257812 116.601562 190.292969 116.480469 190.292969 116.332031 L 189.3125 116.332031 L 190.230469 116.675781 L 189.699219 116.476562 L 190.175781 116.785156 C 190.183594 116.773438 190.207031 116.738281 190.230469 116.675781 L 189.699219 116.476562 L 190.175781 116.785156 L 190.050781 116.703125 L 190.175781 116.789062 L 190.175781 116.785156 L 190.050781 116.703125 L 190.175781 116.789062 L 190.179688 116.78125 C 190.210938 116.738281 190.398438 116.554688 190.703125 116.335938 C 191.003906 116.109375 191.417969 115.839844 191.921875 115.535156 C 192.335938 115.285156 192.613281 114.851562 192.667969 114.371094 C 192.726562 113.890625 192.554688 113.40625 192.210938 113.066406 L 185.40625 106.375 C 185.003906 105.980469 184.425781 105.832031 183.882812 105.980469 C 183.339844 106.128906 182.921875 106.558594 182.777344 107.101562 L 182.753906 107.203125 L 184.277344 107.597656 L 182.898438 106.835938 L 184.089844 107.492188 L 183.828125 106.15625 C 183.421875 106.242188 183.109375 106.46875 182.898438 106.835938 L 184.089844 107.492188 L 183.828125 106.15625 L 183.820312 106.160156 L 183.652344 106.195312 L 183.644531 106.195312 C 183.058594 106.316406 182.5 106.421875 182.007812 106.5 C 181.519531 106.574219 181.09375 106.617188 180.816406 106.617188 C 180.710938 106.617188 180.628906 106.609375 180.582031 106.605469 L 180.539062 106.597656 L 180.53125 106.597656 L 180.386719 107.140625 L 180.703125 106.6875 C 180.59375 106.609375 180.53125 106.597656 180.53125 106.597656 L 180.386719 107.140625 L 180.703125 106.6875 L 180.125 107.515625 L 181.042969 107.097656 C 180.960938 106.914062 180.8125 106.757812 180.703125 106.6875 L 180.125 107.515625 L 181.042969 107.097656 L 180.992188 107 L 180.972656 106.960938 L 179.585938 107.710938 L 181.140625 107.445312 L 181.128906 107.375 L 181.113281 107.304688 L 180 107.550781 L 181.140625 107.550781 C 181.140625 107.492188 181.136719 107.40625 181.113281 107.304688 L 180 107.550781 L 181.140625 107.550781 L 180.167969 107.550781 L 181.078125 107.898438 C 181.109375 107.824219 181.140625 107.699219 181.140625 107.550781 L 180.167969 107.550781 L 181.078125 107.898438 L 180.574219 107.703125 L 181.027344 108.007812 C 181.03125 107.996094 181.054688 107.964844 181.078125 107.898438 L 180.574219 107.703125 L 181.027344 108.007812 C 181.046875 107.972656 181.246094 107.773438 181.570312 107.539062 C 181.898438 107.300781 182.351562 107.003906 182.902344 106.675781 C 183.324219 106.421875 183.597656 105.996094 183.65625 105.511719 C 183.714844 105.023438 183.546875 104.546875 183.199219 104.203125 L 176.945312 98.054688 L 175.839844 99.175781 L 176.386719 100.648438 L 177.550781 100.21875 C 178.070312 100.027344 178.445312 99.582031 178.550781 99.039062 C 178.652344 98.496094 178.46875 97.941406 178.058594 97.574219 L 178.050781 97.570312 L 177 98.738281 L 177.546875 100.214844 L 178.6875 99.789062 L 178.140625 98.3125 L 177.101562 99.5 L 177.109375 99.503906 C 177.542969 99.882812 178.152344 99.996094 178.691406 99.796875 L 183.546875 97.992188 L 199.9375 107.566406 C 200.34375 107.804688 200.832031 107.847656 201.277344 107.683594 L 206.824219 105.625 C 206.894531 105.597656 206.964844 105.585938 207.039062 105.585938 C 207.164062 105.585938 207.292969 105.628906 207.402344 105.699219 C 207.503906 105.773438 207.585938 105.871094 207.632812 106 C 207.664062 106.078125 207.671875 106.148438 207.671875 106.21875 C 207.675781 106.34375 207.632812 106.476562 207.558594 106.578125 C 207.488281 106.6875 207.390625 106.765625 207.261719 106.816406 L 205.117188 107.609375 C 204.546875 107.820312 204.148438 108.34375 204.09375 108.949219 C 204.042969 109.554688 204.34375 110.136719 204.867188 110.445312 L 208.71875 112.695312 C 209.125 112.933594 209.613281 112.976562 210.058594 112.8125 L 214.804688 111.050781 L 214.808594 111.050781 C 214.878906 111.027344 214.949219 111.015625 215.023438 111.015625 C 215.144531 111.011719 215.277344 111.050781 215.382812 111.125 C 215.488281 111.199219 215.570312 111.296875 215.617188 111.429688 L 215.617188 111.421875 C 215.644531 111.5 215.65625 111.574219 215.65625 111.644531 C 215.65625 111.769531 215.617188 111.898438 215.542969 112.003906 C 215.46875 112.109375 215.375 112.191406 215.242188 112.238281 L 213.894531 112.738281 C 213.324219 112.949219 212.925781 113.472656 212.875 114.078125 C 212.820312 114.683594 213.125 115.269531 213.648438 115.574219 L 222.265625 120.609375 C 222.695312 120.855469 223.214844 120.890625 223.671875 120.699219 L 228.550781 118.640625 L 228.574219 118.632812 C 228.574219 118.632812 228.71875 118.570312 228.976562 118.453125 C 229.882812 118.058594 232.199219 117.046875 234.628906 116.007812 C 235.84375 115.488281 237.085938 114.960938 238.195312 114.503906 C 239.300781 114.046875 240.277344 113.652344 240.933594 113.410156 C 242.707031 112.753906 244.59375 112.464844 246.445312 112.464844 C 249.132812 112.460938 251.746094 113.085938 253.734375 114.003906 C 254.730469 114.460938 255.566406 114.992188 256.171875 115.519531 C 256.78125 116.046875 257.148438 116.566406 257.289062 116.941406 C 257.5 117.488281 258 117.878906 258.582031 117.941406 C 259.167969 118.007812 259.742188 117.738281 260.066406 117.253906 L 260.070312 117.25 L 258.757812 116.375 L 257.253906 116.835938 L 257.257812 116.851562 C 257.277344 116.914062 257.289062 116.949219 257.316406 117.011719 L 257.324219 117.027344 L 258.773438 116.410156 L 258.386719 114.882812 C 257.957031 114.992188 257.589844 115.277344 257.378906 115.667969 C 257.171875 116.058594 257.136719 116.523438 257.289062 116.941406 L 258.769531 116.410156 " fill-opacity="1" fill-rule="nonzero"/></g></svg>